<svg xmlns="http://www.w3.org/2000/svg" version="1.1" xmlns:xlink="http://www.w3.org/1999/xlink" width="1500" height="1500" viewBox="0 0 1500 1500"><rect width="1500" height="1500" x="0" y="0" id="background" stroke="transparent" fill="#1d1d1d"></rect><svg xml:space="preserve" width="1000" height="1000" data-version="2" data-id="lg_N0FqQDGMEjMeksYB1i" viewBox="0 0 540 610" x="250" y="250"><rect width="100%" height="100%" fill="transparent"></rect><path fill="none" stroke="#000000" d="M17.608 567.96q1.8 0 3.19-.98 1.39-.97 1.39-2.93 0-1.96-1.5-3.01-1.49-1.04-4.25-1.81-2.75-.78-3.99-1.35-1.24-.58-2.36-1.52-2.23-1.87-2.23-5.79 0-3.21 2.28-5.51 2.29-2.3 6.25-2.3 1.91 0 3.98.55 2.07.56 2.57.56.51 0 .9-.72h.4l.25 7.27h-.58q-1.72-3.13-3.61-5.02-1.89-1.89-4.11-1.89-2.21 0-3.44 1.03-1.22 1.02-1.22 2.73t1.46 2.63q1.46.92 3.58 1.5 2.12.57 2.79.79.67.21 1.66.59.99.38 1.62.79.63.42 1.33 1.05.7.63 1.1 1.38.97 1.73.97 4.11 0 3.89-2.43 6.24-2.43 2.36-6.39 2.36-2.05 0-4.7-.54-2.65-.54-2.93-.54-.51 0-.98 1.08h-.5l-.36-8.57h.61q1.59 3.14 4.05 5.48 2.47 2.34 5.2 2.34ZM27.868 542v-.65h8.68v13.18q.58-1.66 1.76-2.67 1.19-1 3.6-1 5.58 0 5.58 6.01v10.83h2.02v.65h-10.19v-.65h1.48V556q0-2.16-.29-2.79-.29-.63-1.04-.63-1.16 0-2.04 1.52-.88 1.51-.88 3.67v9.93h1.55v.65h-10.23v-.65h1.98V542zm31.65 26.71q-4.65 0-6.97-2.39-2.32-2.4-2.32-6.66 0-4.27 2.61-6.54 2.61-2.26 6.64-2.26 8.17 0 7.85 8.2h-10.15v1.41q0 3.53.9 5.33.9 1.8 3.13 1.8 4.18 0 5.47-4.47l.65.11q-.68 2.59-2.47 4.03-1.78 1.44-5.34 1.44zm-2.31-12.13v1.76h3.71v-1.76q0-2.92-.34-3.98t-1.37-1.06q-1.02 0-1.51 1.13-.49 1.14-.49 3.91zm23.44-4.36q-1.33 0-2.34 1.73-1.01 1.73-1.01 4.11v9.64h2.56v.65h-11.23v-.65h1.98v-15.84h-1.98v-.64h8.67v3.45q.47-1.83 1.8-2.82 1.33-.99 3.03-.99 1.69 0 2.75.95t1.06 2.7q0 1.75-.79 2.68-.79.94-2.43.94-1.64 0-2.41-1.08-.78-1.08-.2-2.99h1.3q.9-1.84-.76-1.84Zm11.09-3.49q-1.91 0-2.72-.97-.81-.97-.81-2.41 0-1.44.88-2.38.88-.93 2.68-.93 1.8 0 2.74.84.94.85.94 2.41 0 1.57-.9 2.51-.9.93-2.81.93Zm-5.44 3.13v-.64h8.82v16.48h2.02v.65h-10.69v-.65h1.98v-15.84zm12.82 16.85h-.43v-6.44h.43q.93 3.13 2.52 4.39 1.58 1.26 3.96 1.26 3.67 0 3.67-2.34 0-1.01-.9-1.51-1.4-.79-3.6-1.23-2.45-.64-4.1-1.72-1.98-1.3-1.98-4.11 0-2.81 1.72-4.48 1.73-1.67 4.61-1.67 1.77 0 3.64.82.68.29 1.04.29t.61-.25q.26-.25.62-.94h.39v5.51h-.43q-1.84-4.68-5.69-4.68-1.69 0-2.52.6-.83.59-.83 1.49 0 .54.26.85.25.3.39.45.15.14.47.3.32.16.54.25.22.09.67.24.45.14.66.18 2.45.61 3.53 1.06 1.08.45 2.05 1.1 1.98 1.37 1.98 4.41t-1.8 4.61q-1.8 1.56-4.93 1.56-2.23 0-4.32-1.04-.43-.29-.68-.29-.8 0-1.55 1.33zm23.83 0q-4.64 0-6.97-2.39-2.32-2.4-2.32-6.66 0-4.27 2.61-6.54 2.61-2.26 6.64-2.26 8.18 0 7.85 8.2h-10.15v1.41q0 3.53.9 5.33.9 1.8 3.13 1.8 4.18 0 5.47-4.47l.65.11q-.68 2.59-2.46 4.03-1.79 1.44-5.35 1.44zm-2.3-12.13v1.76h3.7v-1.76q0-2.92-.34-3.98t-1.37-1.06q-1.02 0-1.51 1.13-.48 1.14-.48 3.91zm-91.52 21.43h-1.98v24.51h-5.04l-12.34-23.29v22.61h1.98v.68h-4.94v-.68h1.98v-23.83h-1.98v-.69h9.94l9.43 18.08v-17.39h-1.98v-.69h4.93zm10.73 24.87q-4.64 0-6.96-2.39-2.33-2.39-2.33-6.66t2.61-6.53q2.61-2.27 6.65-2.27 8.17 0 7.84 8.21h-10.15v1.4q0 3.53.9 5.33.9 1.8 3.13 1.8 4.18 0 5.48-4.47l.64.11q-.68 2.59-2.46 4.03-1.78 1.44-5.35 1.44zm-2.3-12.13v1.77h3.71v-1.77q0-2.91-.35-3.98-.34-1.06-1.36-1.06-1.03 0-1.52 1.14-.48 1.13-.48 3.9zm13.21 6.63v-11.34h-1.98v-.65h1.98v-4.65l6.7-1.65v6.3h4.68v.65h-4.68v12.13q0 1.69.34 2.48t1.42.79q1.08 0 1.89-1.08.81-1.08 1.06-2.95l.61.07q-.28 2.49-1.58 3.95-1.3 1.45-4.28 1.45-2.99 0-4.58-1.18-1.58-1.19-1.58-4.32Zm26.03-11.34h-1.33v-.65h9.28v.65h-1.47l3.24 12.13 3.2-12.13h-2.48v-.65h4.86v.65h-1.51l-4.32 16.48h-4.94l-3.13-11.05-3.38 11.05h-4.83l-5.32-16.48h-1.62v-.65h10.9v.65h-2.16l3.32 12.24 2.59-8.43zm28.01 9.39v-3.06q0-3.49-.38-5.09-.38-1.6-1.75-1.6-.79 0-1.28.45-.48.45-.7 1.49-.32 1.62-.32 4.93v2.81q0 3.92.23 4.72.24.79.49 1.29.39.87 1.55.87 1.4 0 1.83-1.62.33-1.16.33-5.19Zm-2.24 7.45q-4.5 0-6.8-2.3t-2.3-6.61q0-4.3 2.46-6.62 2.47-2.32 6.93-2.32 4.47 0 6.66 2.14 2.2 2.14 2.2 6.53 0 9.18-9.15 9.18zm22.18-16.48q-1.33 0-2.34 1.72-1.01 1.73-1.01 4.11v9.65h2.56v.64h-11.23v-.64h1.98v-15.84h-1.98v-.65h8.67v3.45q.47-1.83 1.8-2.82 1.33-.99 3.03-.99 1.69 0 2.75.95 1.06.96 1.06 2.7 0 1.75-.79 2.68-.79.94-2.43.94-1.64 0-2.41-1.08-.78-1.08-.2-2.99h1.3q.9-1.83-.76-1.83Zm27.58 16.12h-10.01v-.64h1.65l-4.06-8.36-.69.18v8.18h1.66v.64h-10.33v-.64h1.98v-25.71h-2.13v-.65h8.82v17.46l.58-.21 8.1-6.73h-3.39v-.65h7.1v.65h-2.52l-4.29 3.63 6.23 12.21h1.3z" paint-order="stroke"></path><path fill="#939393" d="M17.608 567.96q1.8 0 3.19-.98 1.39-.97 1.39-2.93 0-1.96-1.5-3.01-1.49-1.04-4.25-1.81-2.75-.78-3.99-1.35-1.24-.58-2.36-1.52-2.23-1.87-2.23-5.79 0-3.21 2.28-5.51 2.29-2.3 6.25-2.3 1.91 0 3.98.55 2.07.56 2.57.56.51 0 .9-.72h.4l.25 7.27h-.58q-1.72-3.13-3.61-5.02-1.89-1.89-4.11-1.89-2.21 0-3.44 1.03-1.22 1.02-1.22 2.73t1.46 2.63q1.46.92 3.58 1.5 2.12.57 2.79.79.67.21 1.66.59.99.38 1.62.79.63.42 1.33 1.05.7.63 1.1 1.38.97 1.73.97 4.11 0 3.89-2.43 6.24-2.43 2.36-6.39 2.36-2.05 0-4.7-.54-2.65-.54-2.93-.54-.51 0-.98 1.08h-.5l-.36-8.57h.61q1.59 3.14 4.05 5.48 2.47 2.34 5.2 2.34" paint-order="stroke"></path><rect width="18.29" height="25.95" x="-9.14" y="-12.97" fill="none" rx="0" ry="0" transform="translate(17.4 556.24)"></rect><path fill="#939393" d="M27.868 542v-.65h8.68v13.18q.58-1.66 1.76-2.67 1.19-1 3.6-1 5.58 0 5.58 6.01v10.83h2.02v.65h-10.19v-.65h1.48V556q0-2.16-.29-2.79-.29-.63-1.04-.63-1.16 0-2.04 1.52-.88 1.51-.88 3.67v9.93h1.55v.65h-10.23v-.65h1.98V542z" paint-order="stroke"></path><rect width="21.64" height="27" x="-10.82" y="-13.5" fill="none" rx="0" ry="0" transform="translate(39.19 555.35)"></rect><path fill="#939393" d="M59.518 568.71q-4.65 0-6.97-2.39-2.32-2.4-2.32-6.66 0-4.27 2.61-6.54 2.61-2.26 6.64-2.26 8.17 0 7.85 8.2h-10.15v1.41q0 3.53.9 5.33.9 1.8 3.13 1.8 4.18 0 5.47-4.47l.65.11q-.68 2.59-2.47 4.03-1.78 1.44-5.34 1.44m-2.31-12.13v1.76h3.71v-1.76q0-2.92-.34-3.98t-1.37-1.06q-1.02 0-1.51 1.13-.49 1.14-.49 3.91" paint-order="stroke"></path><rect width="17.2" height="17.85" x="-8.6" y="-8.93" fill="none" rx="0" ry="0" transform="translate(59.33 560.28)"></rect><path fill="#939393" d="M80.648 552.22q-1.33 0-2.34 1.73-1.01 1.73-1.01 4.11v9.64h2.56v.65h-11.23v-.65h1.98v-15.84h-1.98v-.64h8.67v3.45q.47-1.83 1.8-2.82 1.33-.99 3.03-.99 1.69 0 2.75.95t1.06 2.7q0 1.75-.79 2.68-.79.94-2.43.94-1.64 0-2.41-1.08-.78-1.08-.2-2.99h1.3q.9-1.84-.76-1.84" paint-order="stroke"></path><rect width="17.31" height="17.49" x="-8.65" y="-8.74" fill="none" rx="0" ry="0" transform="translate(77.78 560.1)"></rect><path fill="#939393" d="M91.738 548.73q-1.91 0-2.72-.97-.81-.97-.81-2.41 0-1.44.88-2.38.88-.93 2.68-.93 1.8 0 2.74.84.94.85.94 2.41 0 1.57-.9 2.51-.9.93-2.81.93m-5.44 3.13v-.64h8.82v16.48h2.02v.65h-10.69v-.65h1.98v-15.84z" paint-order="stroke"></path><rect width="10.84" height="26.31" x="-5.42" y="-13.15" fill="none" rx="0" ry="0" transform="translate(92.22 555.7)"></rect><path fill="#939393" d="M99.118 568.71h-.43v-6.44h.43q.93 3.13 2.52 4.39 1.58 1.26 3.96 1.26 3.67 0 3.67-2.34 0-1.01-.9-1.51-1.4-.79-3.6-1.23-2.45-.64-4.1-1.72-1.98-1.3-1.98-4.11 0-2.81 1.72-4.48 1.73-1.67 4.61-1.67 1.77 0 3.64.82.68.29 1.04.29t.61-.25q.26-.25.62-.94h.39v5.51h-.43q-1.84-4.68-5.69-4.68-1.69 0-2.52.6-.83.59-.83 1.49 0 .54.26.85.25.3.39.45.15.14.47.3.32.16.54.25.22.09.67.24.45.14.66.18 2.45.61 3.53 1.06 1.08.45 2.05 1.1 1.98 1.37 1.98 4.41t-1.8 4.61q-1.8 1.56-4.93 1.56-2.23 0-4.32-1.04-.43-.29-.68-.29-.8 0-1.55 1.33" paint-order="stroke"></path><rect width="13.71" height="17.93" x="-6.86" y="-8.96" fill="none" rx="0" ry="0" transform="translate(106.04 560.25)"></rect><path fill="#939393" d="M122.948 568.71q-4.64 0-6.97-2.39-2.32-2.4-2.32-6.66 0-4.27 2.61-6.54 2.61-2.26 6.64-2.26 8.18 0 7.85 8.2h-10.15v1.41q0 3.53.9 5.33.9 1.8 3.13 1.8 4.18 0 5.47-4.47l.65.11q-.68 2.59-2.46 4.03-1.79 1.44-5.35 1.44m-2.3-12.13v1.76h3.7v-1.76q0-2.92-.34-3.98t-1.37-1.06q-1.02 0-1.51 1.13-.48 1.14-.48 3.91" paint-order="stroke"></path><rect width="17.2" height="17.85" x="-8.6" y="-8.93" fill="none" rx="0" ry="0" transform="translate(122.76 560.28)"></rect><path fill="#939393" d="M29.128 578.01h-1.98v24.51h-5.04l-12.34-23.29v22.61h1.98v.68h-4.94v-.68h1.98v-23.83h-1.98v-.69h9.94l9.43 18.08v-17.39h-1.98v-.69h4.93z" paint-order="stroke"></path><rect width="22.32" height="25.2" x="-11.16" y="-12.6" fill="none" rx="0" ry="0" transform="translate(18.47 590.42)"></rect><path fill="#939393" d="M39.858 602.88q-4.64 0-6.96-2.39-2.33-2.39-2.33-6.66t2.61-6.53q2.61-2.27 6.65-2.27 8.17 0 7.84 8.21h-10.15v1.4q0 3.53.9 5.33.9 1.8 3.13 1.8 4.18 0 5.48-4.47l.64.11q-.68 2.59-2.46 4.03-1.78 1.44-5.35 1.44m-2.3-12.13v1.77h3.71v-1.77q0-2.91-.35-3.98-.34-1.06-1.36-1.06-1.03 0-1.52 1.14-.48 1.13-.48 3.9" paint-order="stroke"></path><rect width="17.2" height="17.85" x="-8.6" y="-8.93" fill="none" rx="0" ry="0" transform="translate(39.67 594.46)"></rect><path fill="#939393" d="M50.768 597.38v-11.34h-1.98v-.65h1.98v-4.65l6.7-1.65v6.3h4.68v.65h-4.68v12.13q0 1.69.34 2.48t1.42.79q1.08 0 1.89-1.08.81-1.08 1.06-2.95l.61.07q-.28 2.49-1.58 3.95-1.3 1.45-4.28 1.45-2.99 0-4.58-1.18-1.58-1.19-1.58-4.32" paint-order="stroke"></path><rect width="14" height="23.79" x="-7" y="-11.89" fill="none" rx="0" ry="0" transform="translate(56.29 591.49)"></rect><path fill="#939393" d="M76.798 586.04h-1.33v-.65h9.28v.65h-1.47l3.24 12.13 3.2-12.13h-2.48v-.65h4.86v.65h-1.51l-4.32 16.48h-4.94l-3.13-11.05-3.38 11.05h-4.83l-5.32-16.48h-1.62v-.65h10.9v.65h-2.16l3.32 12.24 2.59-8.43z" paint-order="stroke"></path><rect width="29.05" height="17.13" x="-14.53" y="-8.56" fill="none" rx="0" ry="0" transform="translate(78.07 594.46)"></rect><path fill="#939393" d="M104.808 595.43v-3.06q0-3.49-.38-5.09-.38-1.6-1.75-1.6-.79 0-1.28.45-.48.45-.7 1.49-.32 1.62-.32 4.93v2.81q0 3.92.23 4.72.24.79.49 1.29.39.87 1.55.87 1.4 0 1.83-1.62.33-1.16.33-5.19m-2.24 7.45q-4.5 0-6.8-2.3t-2.3-6.61q0-4.3 2.46-6.62 2.47-2.32 6.93-2.32 4.47 0 6.66 2.14 2.2 2.14 2.2 6.53 0 9.18-9.15 9.18" paint-order="stroke"></path><rect width="18.25" height="17.85" x="-9.13" y="-8.93" fill="none" rx="0" ry="0" transform="translate(103.1 594.46)"></rect><path fill="#939393" d="M124.748 586.4q-1.33 0-2.34 1.72-1.01 1.73-1.01 4.11v9.65h2.56v.64h-11.23v-.64h1.98v-15.84h-1.98v-.65h8.67v3.45q.47-1.83 1.8-2.82 1.33-.99 3.03-.99 1.69 0 2.75.95 1.06.96 1.06 2.7 0 1.75-.79 2.68-.79.94-2.43.94-1.64 0-2.41-1.08-.78-1.08-.2-2.99h1.3q.9-1.83-.76-1.83" paint-order="stroke"></path><rect width="17.31" height="17.49" x="-8.65" y="-8.74" fill="none" rx="0" ry="0" transform="translate(121.88 594.27)"></rect><path fill="#939393" d="M152.328 602.52h-10.01v-.64h1.65l-4.06-8.36-.69.18v8.18h1.66v.64h-10.33v-.64h1.98v-25.71h-2.13v-.65h8.82v17.46l.58-.21 8.1-6.73h-3.39v-.65h7.1v.65h-2.52l-4.29 3.63 6.23 12.21h1.3z" paint-order="stroke"></path><rect width="21.93" height="27" x="-10.96" y="-13.5" fill="none" rx="0" ry="0" transform="translate(141.86 589.52)"></rect><path fill="#848484" d="M480.958 548.82q0-2.82-2.79-2.82-1.11 0-2.42.5-1.31.49-2.22 1.19-.29.17-.64.17-.35 0-.6-.17t-.25-.52q0-.35.51-.73 1.81-1.93 4.6-2.5.85-.17 1.78-.17 2.22 0 3.51 1.24 1.3 1.24 1.3 3.39 0 3.03-3.21 6.76-2.46 2.85-6.71 6.33h3.73q2.08 0 2.66-.01l.29-.01q1.13 0 1.85-1.84.21-.54.21-.75v-.01q.8 0 1.28.55.48.54.48 1.5 0 .97-.48 1.73-.49.77-1.28.77h-9.38q-.75 0-1.24-.41-.5-.4-.5-1.14 0-.35.44-.82.43-.47 1.37-1.31 4.46-3.96 6.6-7.67 1.11-1.92 1.11-3.25"></path><rect width="12.88" height="19.65" x="-6.44" y="-9.82" fill="none" rx="0" ry="0" transform="translate(478.38 554.1)"></rect><path fill="#848484" d="M495.368 561.97q2.11 0 3.48-1.08 1.37-1.07 2.06-2.8.7-1.73.7-3.7 0-3.31-1.76-5.79-1.75-2.48-4.78-2.48-3.02 0-4.62 2.22t-1.6 5.43q0 3.2 1.74 5.7 1.75 2.5 4.78 2.5m-.22 1.79q-4.45 0-6.92-2.91-2.27-2.67-2.27-6.55t2.37-6.77q1.6-1.94 4.17-2.73 1.29-.39 2.83-.39 3.03 0 5.1 1.29 2.06 1.29 3.1 3.45 1.04 2.15 1.04 4.63 0 3.95-2.38 6.83-2.61 3.15-7.04 3.15"></path><rect width="18.61" height="19.35" x="-9.3" y="-9.68" fill="none" rx="0" ry="0" transform="translate(495.76 554.59)"></rect><path fill="#848484" d="M515.198 548.82q0-2.82-2.8-2.82-1.1 0-2.41.5-1.32.49-2.23 1.19-.29.17-.64.17-.35 0-.6-.17t-.25-.52q0-.35.52-.73 1.8-1.93 4.6-2.5.84-.17 1.78-.17 2.21 0 3.51 1.24 1.3 1.24 1.3 3.39 0 3.03-3.22 6.76-2.45 2.85-6.71 6.33h3.73q2.09 0 2.67-.01l.29-.01q1.13 0 1.84-1.84.21-.54.21-.75v-.01q.81 0 1.29.55.48.54.48 1.5 0 .97-.49 1.73-.48.77-1.28.77h-9.37q-.75 0-1.24-.41-.5-.4-.5-1.14 0-.35.44-.82.43-.47 1.37-1.31 4.45-3.96 6.6-7.67 1.11-1.92 1.11-3.25"></path><rect width="12.88" height="19.65" x="-6.44" y="-9.82" fill="none" rx="0" ry="0" transform="translate(512.62 554.1)"></rect><path fill="#848484" d="M532.648 561.14q-.93 1.29-2.46 1.93-1.53.65-3.3.65-1.76 0-3.67-.63-1.9-.62-2.67-1.15-.78-.53-.98-.8-.2-.27-.2-.56 0-.29.25-.58.25-.3.5-.3.26 0 1.11.42.85.42 2.31.79 1.45.37 2.88.37 2.07 0 3.1-.99 1.04-1 1.04-2.54t-1.43-2.86q-1.42-1.32-4-1.32-1.93 0-4.16.33l2.13-8.77 3.15.12q4.84 0 5.35-1.77l.25-.01q.65 0 1.04.49.4.5.4 1.21 0 1.12-.91 1.64-.91.51-2.27.51h-5.7l-.96 4.72q1.64-.15 2.97-.15 3.28 0 5.23 1.61 1.94 1.61 1.94 4.64 0 1.72-.94 3"></path><rect width="14.22" height="20.25" x="-7.11" y="-10.13" fill="none" rx="0" ry="0" transform="translate(526.98 554.1)"></rect><path fill="none" stroke="#000000" d="M195.788 313.51q-10.72 0-17.68-3.68-6.96-3.68-10.32-9.44-3.36-5.76-3.36-11.84 0-5.92 2.88-11.28 2.88-5.36 8.24-8.88 5.36-3.52 12.72-3.52-.16 1.44-.16 2.64v1.2q0 10.72 2.08 16.88 2.08 6.16 5.28 8.8 3.2 2.64 6.56 2.64 5.12 0 9.12-4.08 4-4.08 4-9.52 0-6.08-5.2-10.72-5.2-4.64-13.2-10.24-4.48-3.36-9.52-7.6-5.04-4.24-8.56-10.08-3.52-5.84-3.52-13.84 0-8.32 3.92-14.72t10.4-10.8q6.48-4.4 14.24-6.72 7.76-2.32 15.44-2.32 9.44 0 15.52 3.04t9.12 7.84q3.04 4.8 3.04 9.92 0 4.8-2.64 9.2-2.64 4.4-7.76 7.12-5.12 2.72-12.64 2.72.48-2.24.64-4.08.16-1.84.16-3.28 0-8-3.44-11.44-3.44-3.44-7.6-3.44-4 0-7.68 2.96-3.68 2.96-3.68 9.52 0 5.6 2.96 9.6t7.68 7.04q4.72 3.04 10 5.92 5.44 2.88 10.48 6.32 5.04 3.44 8.4 8.08 3.36 4.64 3.36 11.68 0 7.36-4 14.32t-10.88 12.32q-6.88 5.36-15.76 8.56-8.88 3.2-18.64 3.2Zm75.52-.32q-5.92 0-10.8-4.8-4.88-4.8-4.88-15.2 0-10.4 2-20.08 2-9.68 4.64-18.64 2.64-8.96 4.64-17.04 2-8.08 2-15.28-2.4-.96-4.48-.96-2.88 0-4.8 1.76t-3.04 4.8l-1.6-.48q.16-11.2 3.28-17.84 3.12-6.64 8.08-9.52t10.24-2.88q8 0 14.32 5.2t11.36 14.16q5.04 8.96 8.8 20.24 3.76 11.28 6.48 23.52 2.72 12.24 4.32 24.08.96-6.4 2-15.68t1.84-19.52q.8-10.24.8-19.52 0-6.72-.48-12.24-.48-5.52-1.6-9.52v-1.28q4.16-4.64 8.4-7.04 4.24-2.4 7.92-2.4 5.44 0 9.04 4.72 3.6 4.72 3.6 13.36 0 6.4-1.76 15.6t-4.16 19.6q-2.4 10.4-4.24 20.4-1.84 10-2 18 0 2.24.32 4.8.32 2.56 3.36 2.56.16.64.16.96v.64q-.16 6.08-4.96 10.8-4.8 4.72-12.8 4.72-6.24 0-10.56-3.2t-7.2-8.56q-2.88-5.36-4.88-12.16t-3.76-14q-3.2-12.48-6.64-23.76-3.44-11.28-9.2-20.72.32 6.4-.48 14t-1.68 15.36q-.88 7.76-.88 14.96 0 6.4 1.12 11.76 1.12 5.36 4 9.52 0 7.84-4.96 12.32t-10.88 4.48Z" paint-order="stroke"></path><path fill="#939393" d="M195.788 313.51q-10.72 0-17.68-3.68-6.96-3.68-10.32-9.44-3.36-5.76-3.36-11.84 0-5.92 2.88-11.28 2.88-5.36 8.24-8.88 5.36-3.52 12.72-3.52-.16 1.44-.16 2.64v1.2q0 10.72 2.08 16.88 2.08 6.16 5.28 8.8 3.2 2.64 6.56 2.64 5.12 0 9.12-4.08 4-4.08 4-9.52 0-6.08-5.2-10.72-5.2-4.64-13.2-10.24-4.48-3.36-9.52-7.6-5.04-4.24-8.56-10.08-3.52-5.84-3.52-13.84 0-8.32 3.92-14.72t10.4-10.8q6.48-4.4 14.24-6.72 7.76-2.32 15.44-2.32 9.44 0 15.52 3.04t9.12 7.84q3.04 4.8 3.04 9.92 0 4.8-2.64 9.2-2.64 4.4-7.76 7.12-5.12 2.72-12.64 2.72.48-2.24.64-4.08.16-1.84.16-3.28 0-8-3.44-11.44-3.44-3.44-7.6-3.44-4 0-7.68 2.96-3.68 2.96-3.68 9.52 0 5.6 2.96 9.6t7.68 7.04q4.72 3.04 10 5.92 5.44 2.88 10.48 6.32 5.04 3.44 8.4 8.08 3.36 4.64 3.36 11.68 0 7.36-4 14.32t-10.88 12.32q-6.88 5.36-15.76 8.56-8.88 3.2-18.64 3.2" paint-order="stroke"></path><rect width="82.4" height="117.12" x="-41.2" y="-58.56" fill="none" rx="0" ry="0" transform="translate(206.13 255.45)"></rect><path fill="#939393" d="M271.308 313.19q-5.92 0-10.8-4.8-4.88-4.8-4.88-15.2 0-10.4 2-20.08 2-9.68 4.64-18.64 2.64-8.96 4.64-17.04 2-8.08 2-15.28-2.4-.96-4.48-.96-2.88 0-4.8 1.76t-3.04 4.8l-1.6-.48q.16-11.2 3.28-17.84 3.12-6.64 8.08-9.52t10.24-2.88q8 0 14.32 5.2t11.36 14.16q5.04 8.96 8.8 20.24 3.76 11.28 6.48 23.52 2.72 12.24 4.32 24.08.96-6.4 2-15.68t1.84-19.52q.8-10.24.8-19.52 0-6.72-.48-12.24-.48-5.52-1.6-9.52v-1.28q4.16-4.64 8.4-7.04 4.24-2.4 7.92-2.4 5.44 0 9.04 4.72 3.6 4.72 3.6 13.36 0 6.4-1.76 15.6t-4.16 19.6q-2.4 10.4-4.24 20.4-1.84 10-2 18 0 2.24.32 4.8.32 2.56 3.36 2.56.16.64.16.96v.64q-.16 6.08-4.96 10.8-4.8 4.72-12.8 4.72-6.24 0-10.56-3.2t-7.2-8.56q-2.88-5.36-4.88-12.16t-3.76-14q-3.2-12.48-6.64-23.76-3.44-11.28-9.2-20.72.32 6.4-.48 14t-1.68 15.36q-.88 7.76-.88 14.96 0 6.4 1.12 11.76 1.12 5.36 4 9.52 0 7.84-4.96 12.32t-10.88 4.48" paint-order="stroke"></path><rect width="98.4" height="116.16" x="-49.2" y="-58.08" fill="none" rx="0" ry="0" transform="translate(304.69 255.61)"></rect><path fill="#555555" d="M518.103 426.62c0 11.363.034 22.725-.057 34.088-.011 1.376-.762 2.741-1.171 4.117-1.49-.603-3.413-.819-4.402-1.9-3.173-3.457-7.143-5.493-11.26-7.438-2.343-1.103-4.448-2.73-6.825-3.72-3.867-1.626-7.814-3.957-11.829-4.173-12.159-.66-24.363-.558-36.544-.512-4.982.023-9.964.773-14.957.99-5.096.216-9.827-1.172-14.502-3.23-1.831-.808-4.322-.763-6.347-.32-4.3.945-8.462 2.526-12.727 3.629-3.458.887-7.03 1.365-10.498 2.24-.922.228-2.412 1.411-2.31 1.877.217 1.024 1.172 1.99 2.025 2.742.603.523 1.524.75 2.343.966 4.993 1.32 10.01 2.57 15.003 3.913 8.792 2.366 17.038 6.074 24.988 10.441 5.858 3.22 11.477 6.79 16.276 11.568 2.116 2.104 4.812 3.605 7.098 5.573 6.676 5.732 11.533 13 16.48 20.143 1.639 2.366 2.571 5.232 3.766 7.905.887 1.98-.069 2.832-1.99 2.957q-1.275.08-2.56.08c-18.46 0-36.931-.034-55.391.046-3.151.01-5.335-.83-6.87-3.81-1.98-3.845-4.015-7.803-6.756-11.102-3.174-3.821-7.007-7.143-10.806-10.384-7.29-6.245-14.957-12.068-22.077-18.494a51.183 51.183 0 0 1-12.852-18.142c-.82-1.945-2.105-3.128-4.186-3.344-6.472-.682-12.955-1.376-19.438-1.968-2.24-.204-3.367 1.536-2.957 3.253a37.534 37.534 0 0 0 3.503 9.691c2.343 4.186 5.266 8.053 8.098 11.943 3.003 4.117 6.176 8.11 9.304 12.136 3.47 4.458 7.234 8.724 10.362 13.41 2.172 3.264 3.571 7.063 5.13 10.703.466 1.08.398 2.411.466 3.628.102 1.672-.808 2.411-2.423 2.411l-2.56.023c-20.074 0-40.15-.034-60.224.057-2.514 0-3.731-.682-4.277-3.287-.967-4.618-2.673-9.088-3.48-13.717-.797-4.538-1.32-9.213-1.183-13.808.239-8.474-.58-17.13 2.57-25.273 1.513-3.913 3.458-7.666 5.323-11.442.614-1.263 1.638-2.32 2.366-3.526 1.615-2.685 1.092-5.221-1.717-6.62-4.311-2.138-8.758-4.038-13.217-5.87a3.98 3.98 0 0 0-2.957.194c-10.476 5.335-16.481 13.729-18.722 25.421-2.127 11.101-1.035 22.248-1.831 33.36-.512 7.166-.557 14.32-2.491 21.326-.648 2.343-1.718 3.242-4.129 3.242-22.532-.057-45.075-.023-67.607-.046-3.321 0-4.47-1.137-3.367-4.128 1.763-4.743 4.095-9.281 6.21-13.9 3.947-8.575 11.943-13.466 18.29-19.836 3.913-3.935 8.45-7.245 12.477-11.078 1.797-1.717 2.867-4.186 4.55-6.062 6.438-7.177 10.18-15.776 13.41-24.682 2.002-5.516 5.403-10.02 9.656-14.035 1.138-1.08 2.036-3.049 1.99-4.584-.056-2.195-2.274-2.025-3.98-2.195-2.707-.273-5.391-.853-8.098-.933-6.29-.182-10.59 3.765-14.525 7.86-4.959 5.163-9.497 10.737-14.217 16.14-6.256 7.176-13.012 14.058-21.622 18.061-7.712 3.583-15.924 6.279-24.693 6.95-7.996.614-15.617.25-23.374-2.275-6.392-2.082-11.522-6.12-17.3-9.088-7.552-3.878-15.332-4.538-23.419-2.866-5.437 1.114-10.817 2.513-16.174 3.97-4.436 1.205-8.792 2.74-13.216 4.026-5.721 1.672-11.34.25-16.72-1.32-9.065-2.638-11.977-14.558-8.098-21.883 1.057-1.99 2.127-3.981 3.31-5.903 5.095-8.224 13.114-12.842 21.724-16.004a42.88 42.88 0 0 1 24.022-1.478c8.382 1.82 16.8 3.492 25.159 5.425q6.347 1.479 12.489 3.629c6.562 2.308 12.966 5.084 19.563 7.29 10.157 3.401 20.223 4.163 30.061-1.547 8.247-4.788 16.515-9.577 25.126-13.66 10.862-5.14 22.475-7.21 34.497-5.47 5.482.796 10.885 2.138 16.31 3.286 2.059.433 3.515-.318 3.936-2.24 1.57-7.268 2.229-14.502-2.867-20.837-3.787-4.71-7.757-9.259-11.567-13.934-3.73-4.583-6.722-9.747-8.178-15.377-2.605-10.043 2.252-20.144 13.774-20.735 4.618-.239 8.997-.398 13.672.773 7.154 1.797 11.01 6.46 14.172 12.387.887 1.66 2.07 3.173 2.923 4.845 1.399 2.741 2.81 5.494 3.878 8.371 1.115 2.969 1.843 6.085 2.719 9.156 2.377 8.349.99 16.288-1.718 24.409-2.15 6.483-2.9 13.433-4.231 20.189-.102.534-.091 1.194.125 1.683.557 1.217 1.274 2.355 1.922 3.526.683-.921 1.524-1.774 2.036-2.787 3.56-7.188 8.838-12.738 16.038-16.219 6.255-3.025 12.58-6.028 19.13-8.303 5.301-1.842 11.01-2.49 16.493-3.856 7.223-1.797 14.581-3.219 21.178-6.95 5.96-3.366 11.056-7.643 13.91-14.023 2.685-6.006 5.426-12.023 7.553-18.244 1.547-4.516 1.956-9.407 3.162-14.058 1.536-5.915 3.014-11.886 5.164-17.596 4.379-11.567 10.475-16.333 22.68-16.504 4.754-.068 11.772 3.754 14.445 9.031 4.765 9.418 4.845 19.165 1.956 28.708-2.24 7.393-4.811 14.923-9.884 21.179-2.116 2.616-3.913 5.505-5.744 8.337-7.802 12.068-18.255 21.713-29.277 30.63-5.414 4.379-11.26 8.678-18.562 9.94-1.07.183-2.047.933-3.07 1.423-7.917 3.753-16.414 5.448-24.955 6.915-4.948.853-10.078 1.501-14.252 4.197-3.117 2.002-5.619 5.255-7.746 8.383-1.524 2.24-.148 4.879 2.548 5.448 6.995 1.478 14.035 2.843 21.099 3.97 2.775.443 4.629-1.593 5.687-3.925 1.751-3.856 4.88-6.403 8.428-8.041 5.8-2.673 12-4.459 17.868-6.984 10.92-4.686 22.123-8.906 31.04-17.266 4.06-3.798 8.462-7.233 12.568-10.975 5.437-4.948 8.997-11.283 12.33-17.687 3.821-7.359 7.54-14.786 10.919-22.361 5.118-11.488 8.815-23.283 8.212-36.192-.467-9.941-2.24-19.655-3.697-29.448-.295-1.956-.284-3.97-.614-5.926-1.353-8.28-3.298-16.492-4.038-24.829-1-11.351-2.764-22.93 1.581-33.997 3.47-8.86 9.395-14.968 19.689-15.9 4.868-.444 9.747-.342 13.785 1.887 4.288 2.378 8.076 6.029 10.157 10.794 4.993 11.408 5.641 23.476 4.743 35.646-.273 3.731-1.433 7.428-2.468 11.056-2.696 9.531-5.573 19.029-8.337 28.537-1.923 6.609-3.526 13.33-5.721 19.848-3.538 10.441-5.028 21.292-7.246 32.018a118.29 118.29 0 0 1-11.192 31.665c-2.468 4.63-5.948 8.78-8.041 13.546-2.662 6.074-8.406 9.452-11.693 14.843-3.73 6.131-9.201 10.374-14.843 14.536a76.206 76.206 0 0 0-8.257 7.348c-.626.614-.467 2.013-.671 3.06.921 0 1.979.318 2.764-.012 9.6-4.038 18.38-9.452 25.489-17.06 3.492-3.731 6.04-8.36 8.917-12.649a80.755 80.755 0 0 0 3.89-6.562c2.013-3.708 4.288-7.325 5.823-11.227 3.595-9.122 7.04-18.312 10.09-27.627 2.262-6.904 3.605-14.115 5.697-21.076 2.787-9.293 5.892-18.483 8.872-27.718.262-.808.614-1.593.876-2.4 2.332-7.234 5.994-13.968 11.658-18.79 5.3-4.527 11.83-7.655 17.994-11.101 1.706-.956 4.265-1.957 5.869.489 1.171 1.786-.057 5.755-2.161 7.109-2.218 1.421-4.618 2.581-6.995 3.764-7.302 3.64-12.25 9.293-15.912 16.618-6.836 13.66-10.226 28.332-13.956 42.948-.16.637-.41 1.32-.33 1.945.102.762.5 1.49.773 2.23.785-.376 1.888-.547 2.31-1.172 3.866-5.858 7.802-11.681 11.328-17.744 3.685-6.324 7.939-12.181 13.319-17.095 2.752-2.513 6.096-4.39 9.304-6.347.443-.261 2.024.524 2.411 1.206.455.808.216 2.025.216 3.06v42.038c0 4.834-1.035 6.563-5.698 7.757-7.803 1.99-14.184 6.392-20.565 10.987a169.473 169.473 0 0 1-14.558 9.054c-1.285.74-3.06.808-4.63.887-3.753.194-6.608 1.229-8.223 5.187-1.99 4.89-4.481 9.6-7.063 14.206-1.831 3.253-4.174 6.222-6.301 9.304-.478.694-1.229 1.285-1.468 2.047-.261.82-.386 2.013.035 2.616.307.432 1.626.296 2.468.17 5.232-.761 8.94-4.367 12.83-7.392 8.746-6.813 17.766-13.24 27.707-18.05 5.96-2.89 12.636-4.3 18.994-6.37.353-.114.75-.057 1.126-.125 5.005-.888 5.346-.603 5.357 4.64v33.52Z"></path><path fill="#555555" d="M514.049 208.622a43.221 43.221 0 0 1-6.71-5.608c-2.378-2.343-2.219-3.947.136-6.267 1.751-1.729 3.571-3.4 5.22-5.22 2.241-2.48 2.64-7.052.956-9.27-1.32-1.73-5.755-2.4-8.497-.944-1.717.91-3.082 2.468-4.731 3.537-.967.625-2.343 1.444-3.208 1.16-.796-.262-1.546-1.843-1.626-2.889-.25-3.378-.193-6.79-.239-10.18-.045-2.809 1.638-3.571 4.106-4.447a63.694 63.694 0 0 0 11.51-5.71c1.889-1.137 2.241-3.332 1.41-5.596-1.239-3.378-5.151-5.323-8.996-4.401-.728.17-1.91.227-2.23-.171-.42-.523-.443-1.672-.17-2.366a38.672 38.672 0 0 1 2.753-5.892q2.593-4.344 5.505-8.485c1.547-2.195 3.025-4.56 5.016-6.3a10.578 10.578 0 0 0 3.742-9.85c-.08-.649-1.433-1.764-1.911-1.627-2.662.74-4.072-.683-5.414-2.548a25.023 25.023 0 0 0-2.514-3.07 5.46 5.46 0 0 0-6.779-.797c-2.195 1.422-2.786 3.515-2.127 5.949.5 1.82.865 3.764 1.797 5.368 2.491 4.3.671 7.734-1.649 11.283-2.172 3.31-4.163 6.745-6.187 10.146-1.297 2.184-2.32 4.538-3.8 6.585-1.057 1.456-5.265 1.638-6.141.16-.694-1.172-.5-3.151-.125-4.607.443-1.695 1.672-3.173 2.32-4.834 3.264-8.337 7.314-16.504 9.452-25.136 2.377-9.566 3.628-19.53 2.889-29.516q-.66-8.758-1.877-17.448c-.705-5.038-1.66-10.054-2.764-15.025-.932-4.208-1.842-8.496-3.48-12.454-2.15-5.232-5.05-10.157-7.53-15.253-1.9-3.901-4.129-7.734-5.391-11.84-2.263-7.405-3.742-8.85-11.397-8.872h-1.706c-3.173.057-3.446.512-3.207 3.776.5 6.87 4.06 12.682 6.471 18.858 1.843 4.732 4.573 9.122 6.381 13.865 1.945 5.096 3.424 10.385 4.857 15.65 1.353 4.994 2.9 10.033 3.412 15.14.74 7.325.82 14.74.796 22.11 0 5.187-.08 10.499-1.137 15.538-1.536 7.336-2.73 14.865-6.677 21.52-2.206 3.719-3.742 7.904-6.312 11.34-4.345 5.788-9.202 11.191-13.967 16.65-3.777 4.323-7.746 8.474-11.602 12.717q-5.528 6.096-10.987 12.238c-.432.49-.717 1.104-1.058 1.66-2.116 3.424-4.152 6.893-6.358 10.249-2.309 3.526-4.845 6.915-7.143 10.453a50.046 50.046 0 0 0-3.196 5.982c-2.56 5.46-5.016 10.965-7.62 16.402-.285.602-1.502 1.342-1.923 1.16-.682-.296-1.57-1.388-1.467-1.98.569-3.32 1.046-6.744 2.252-9.86 1.49-3.856 4.05-7.291 5.482-11.159 4.652-12.534 13.012-22.77 20.872-33.177 6.801-9.009 15.081-16.902 22.634-25.353 6.904-7.723 13.296-15.65 16.64-25.853a106.916 106.916 0 0 0 4.993-28.083c.58-11.055-1.251-21.963-3.31-32.893-2.047-10.885-7.234-20.45-11.192-30.471-3.025-7.632-6.494-15.025-7.87-23.18-.376-2.184-1.218-3.504-3.663-3.31-2.514.193-5.698-.922-6.38 2.923-.478 2.684-.433 5.448-.842 8.155-.148.99-.922 1.888-1.4 2.832-.693-.773-1.626-1.444-2.035-2.354-1.434-3.174-2.57-6.483-4.072-9.611-.387-.796-1.831-1.706-2.57-1.547-.786.17-1.639 1.456-1.912 2.411-2.673 9.452-4.913 19.029-7.916 28.367a171.747 171.747 0 0 1-8.121 19.927c-2.013 4.31-5.084 8.11-7.188 12.386-3.788 7.69-9.225 13.922-15.378 19.768a160.373 160.373 0 0 1-24.659 18.938 539.128 539.128 0 0 1-21.599 12.955c-6.881 3.936-13.922 7.598-20.905 11.351-4.163 2.241-8.303 4.527-12.569 6.563-1 .478-2.923.49-3.583-.16-.716-.682-.875-2.547-.489-3.605.433-1.194 1.638-2.206 2.707-3.06.865-.682 2.06-.943 3.037-1.512 9.543-5.55 19.029-11.18 28.606-16.663 7.12-4.083 14.615-7.586 21.463-12.08 7.484-4.901 14.308-10.793 21.633-15.968 6.05-4.277 9.236-10.851 13.842-16.288.967-1.137 1.797-2.434 2.48-3.765 2.638-5.106 5.38-10.168 7.734-15.4a388.99 388.99 0 0 0 8.917-21.349c1.627-4.288 2.719-8.803 3.833-13.273.535-2.15 1.524-4.436-.08-7.075-1.034.899-1.887 1.467-2.536 2.218-4.743 5.437-10.634 9.895-13.82 16.697-1.455 3.105-4.037 5.664-5.618 8.724-5.949 11.533-10.487 23.908-19.222 33.792a275.25 275.25 0 0 1-18.176 18.608c-4.458 4.163-9.52 7.711-14.433 11.374-4.846 3.605-9.634 7.382-14.832 10.396-6.46 3.742-13.273 6.87-20.018 10.088-9.76 4.652-19.165 9.828-27.31 17.039-1.899 1.683-4.105 3.116-5.686 5.061a276.388 276.388 0 0 0-13.012 16.97c-.967 1.388-.955 4.015-.41 5.767.57 1.82 2.48 2.138 4.47 1.956q2.06-.569 4.13-1.194a119.427 119.427 0 0 0 14.114-5.187c1.047-.466 2.025-.967 2.946-1.649q1.251-.955 2.525-1.9a11.374 11.374 0 0 1 3.867-1.899q.148-.114.319-.182c2.98-1.137 6.05-2.059 9.122-2.9 4.174-1.138 8.405-2.048 12.58-3.185 6.449-1.774 12.898-3.549 19.278-5.54 7.723-2.41 15.617-4.47 22.987-7.7 11.59-5.084 22.885-10.896 32.894-18.8a727.936 727.936 0 0 0 23.419-19.154c2.366-2.036 3.958-4.97 5.88-7.519 1.195-1.58 2.446-3.116 3.503-4.788a62.557 62.557 0 0 0 8.122-20.064c.545-2.457 2.058-4.697 3.116-7.04l.842.08c0 1.705.17 3.434-.034 5.106-.546 4.493-1.07 9.008-1.945 13.456-1.32 6.665-3.174 13.216-4.345 19.904-1.115 6.392-4.163 11.92-6.904 17.596a5.346 5.346 0 0 1-3.22 2.457c-6.369 1.58-11.112 5.448-15.252 10.27-3.048 3.549-2.604 6.358 1.377 8.827 2.388 1.478 2.798 3.025 1.126 5.39a59.145 59.145 0 0 1-5.119 6.427c-.568.614-2.047.944-2.843.66-2.161-.762-4.106-2.195-6.279-2.855-3.753-1.126-7.632-1.786-11.42-2.775-3.07-.797-5.31.614-6.79 2.9a5.3 5.3 0 0 0 .729 6.836c2.183 2.16 4.8 3.878 7.279 5.732 3.39 2.548 3.276 4.527-.75 6.2a50.046 50.046 0 0 1-9.441 2.865 14.786 14.786 0 0 0-9.1 5.79c-2.445 3.184-2.126 6.779-.818 10.27.773 2.06 5.448 3.947 8.178 3.606 5.39-.694 10.27-2.57 13.887-6.767 2.31-2.685 4.095-5.824 6.392-8.52 2.946-3.446 6.12-6.71 9.282-9.963 2.365-2.446 2.502-2.377 4.663.364 4.197 5.311 8.121 5.38 11.727-.08.91-1.388 1.24-3.378 1.24-5.095 0-3.299-.558-6.597-.66-9.896a9.1 9.1 0 0 1 .773-4.379c1.729-3.344 3.753-6.528 5.687-9.77 1.115-1.865 2.354-3.663 3.355-5.585 2.457-4.674 4.71-9.452 7.28-14.058.5-.91 2.024-1.695 3.116-1.74 4.243-.194 7.507-1.763 8.485-4.482 1.092-3.036-.09-7.2-3.082-9.645-2.036-1.66-2.605-3.503-2.093-5.994 1.012-4.89 2.218-9.781 2.753-14.73 1-9.303 1.558-18.653 2.365-27.98.216-2.501.671-4.97 1.024-7.46l.842-.08c.17.682.41 1.365.489 2.059 1.058 9.872 2.502 19.722 3.037 29.629.67 12.409 1.023 24.807-1.934 37.17a98.954 98.954 0 0 1-8.064 21.94 73.931 73.931 0 0 1-4.106 7.052c-2.161 3.276-4.584 6.381-6.734 9.68-2.15 3.298-4.003 6.744-6.107 10.054-2.867 4.516-5.892 8.929-8.758 13.433-1.206 1.9-2.116 3.992-3.333 5.88-3.287 5.13-7.12 9.964-9.918 15.332a251.365 251.365 0 0 0-10.6 23.374 138.763 138.763 0 0 0-6.131 19.427c-1.672 7.154-2.423 14.524-3.742 21.758-.467 2.56-.228 4.664 1.842 6.392 2.116 1.763 4.254 1.138 6.358.069 5.187-2.628 9.236-6.313 11.92-11.647 2.264-4.516 5.187-8.701 7.712-13.103 1.786-3.105 3.207-6.426 5.107-9.452 2.184-3.492 4.822-6.71 7.063-10.168 3.72-5.733 7.097-11.681 10.953-17.311 3.856-5.63 8.03-11.079 12.25-16.447 2.502-3.185 5.38-6.085 8.064-9.134 5.54-6.324 11.033-12.704 16.606-18.994 1.888-2.138 3.31-1.831 4.948.466.955 1.342 2.15 3.117 3.526 3.424 2.923.648 3.332 2.4 3.23 4.754a63.694 63.694 0 0 1-.387 5.096c-.784 6.05-.807 6.085-6.847 6.324-3.355.125-5.937 1.364-7.814 4.299-2.536 3.97-.489 9.122 3.97 10.623 3.435 1.149 6.46.728 9.52-.773 2.013-.99 3.594-.74 4.857 1.24 1.478 2.297 2.957 4.606 4.606 6.778 3.321 4.368 3.435 5.79.512 10.385-1.797 2.832-1.911 5.937-.944 9.02s3.548 4.526 6.415 3.173a19.336 19.336 0 0 0 5.846-4.686c2.673-2.992 2.502-3.105 5.88-1.172q1.365.796 2.855 1.217c1.968.558 3.071-.136 3.185-2.32.17-3.503-.967-6.153-4.05-8.155Zm-493.984-18.46c0-5.198.318-10.43-.08-15.606a312.785 312.785 0 0 0-2.616-22.816c-1.752-11.556-4.345-22.998-5.641-34.6-1.183-10.634-.797-21.405 2.9-31.665 2.684-7.438 5.994-14.66 8.69-22.1a36.397 36.397 0 0 0 2.16-10.486 10.692 10.692 0 0 0-2.183-6.404C17.392 38.728 11.375 30.96 7.849 21.86 6.223 17.663 6.7 12.625 6.37 7.95c-.034-.523.853-1.592 1.252-1.57.932.057 2.274.387 2.65 1.047 1.615 2.855 2.934 5.892 4.39 8.849 6.085 12.261 13.057 23.863 23.829 32.723 1.603 1.32 2.877 3.06 4.515 4.3q4.709 3.57 9.702 6.71c.557.352 2.161 0 2.605-.58 4.436-5.608 6.688-11.897 5.63-19.177q-2.138-14.831-4.027-29.709c-.42-3.355.592-4.356 3.856-4.367 9.18-.012 18.37.068 27.548-.046 2.548-.034 3.754.83 4.208 3.401.967 5.38 2.97 10.68 3.14 16.06a64.832 64.832 0 0 1-2.082 17.596c-1.979 7.836-6.688 14.479-11.294 21.053-1.854 2.639-1.035 4.697 2.127 4.902 3.776.24 7.564.182 11.351.285 2.195.056 3.173-1.081 3.674-3.128.876-3.56 1.695-7.177 3.037-10.578a36.056 36.056 0 0 1 11.817-15.901c6.074-4.606 12.307-9.145 17.63-14.536 3.298-3.344 5.061-8.212 7.473-12.432.364-.637.42-1.456.682-2.16 1.638-4.437 1.763-4.505 6.552-4.494 14.865 0 29.731-.022 44.597.046 1.297 0 2.582.66 3.879 1-.364 1.218-.58 2.492-1.092 3.64-4.448 10.01-12.09 17.585-20.348 24.193-7.018 5.619-15.094 9.998-23.021 14.354a52.32 52.32 0 0 0-13.547 11.01c-1.205 1.33-2.593 2.582-3.458 4.117-.568 1.001-.557 2.503-.33 3.674.058.307 1.98.546 2.946.33 5.449-1.16 10.93-2.263 16.288-3.799q7.86-2.252 15.423-5.402a8.758 8.758 0 0 0 4.038-4.152c2.684-5.732 7.018-9.77 12.409-12.716 5.869-3.208 11.727-6.267 18.824-6.37 5.505-.08 11.033-1.16 16.458-2.263a75.068 75.068 0 0 0 12.637-3.73c9.451-3.731 18.778-7.815 28.184-11.659 1.468-.603 3.117-.74 4.698-1.035 6.96-1.297 14.001-1.422 20.7.83 6.12 2.059 11.92 5.039 17.892 7.575 2.081.876 4.174 1.775 6.335 2.4 8.394 2.412 16.89 4.3 25.694 3.424 3.458-.341 6.904-1.888 10.282-1.683 4.516.273 9.1 1.308 13.387 2.786 2.821.978 3.196 4.288 3.333 7.075.353 7.268-2.445 13.069-8.496 17.209-3.64 2.49-7.143 5.243-11.01 7.336-4.618 2.502-9.737 2.332-14.536.569-5.71-2.105-11.17-4.857-16.845-7.075-1.888-.74-4.072-.74-6.13-.99-6.404-.784-12.603.535-18.859 1.672-5.005.91-10.1 2.127-15.105 1.923-7.507-.307-14.968-1.718-22.452-2.696a59.145 59.145 0 0 0-18.54.694c-10.35 1.922-19.495 6.779-28.9 11.033-5.927 2.684-12.217 2.49-18.393 1.58-2.252-.33-4.447-1.99-6.358-3.469-1.876-1.455-3.457-1.296-5.505-.58-6.278 2.207-12.614 4.243-18.937 6.302-2.06.67-4.254 1.012-6.2 1.91-.989.455-2.32 2.036-2.126 2.73.33 1.217 1.547 2.73 2.707 3.071a73.931 73.931 0 0 0 18.653 2.673c11.033.341 22.123.921 33.019 2.525a96.679 96.679 0 0 1 25.148 7.45c8.053 3.583 15.173 8.132 21.03 14.627 4.38 4.868 8.133 10.191 10.294 16.48 2.764 8.008.455 14.514-6.745 17.551a13.99 13.99 0 0 1-11.021.239c-2.594-1.07-5.528-1.513-7.86-2.946-5.664-3.48-11.112-7.313-16.572-11.112-4.618-3.208-8.826-7.166-13.796-9.634a34.122 34.122 0 0 0-13.854-3.48c-11.34-.365-22.702.477-34.042.17a40.491 40.491 0 0 1-19.996-5.812c-4.55-2.718-8.382-5.87-11.249-10.043-2.684-3.902-5.232-7.871-6.665-12.66-1.695-5.63-2.48-8.155-9.304-7.7-2.297.148-4.777-.25-6.858.49-4.664 1.648-6.074 5.209-4.084 9.86 2.241 5.198 4.38 10.521 7.314 15.333 5.641 9.258 12.056 18.039 17.675 27.309 2.9 4.788 5.073 10.077 7.075 15.332 3.719 9.747 4.606 20.018 4.254 30.346-.308 8.826-3.413 16.355-11.34 21.292-4.368 2.718-11.443 1.387-14.036-3.026-4.185-7.086-7.791-14.331-9.531-22.554-1.672-7.905-3.73-15.856-6.825-23.294-2.49-6.006-6.63-11.363-10.316-16.822-3.64-5.38-8.007-10.283-11.397-15.81-3.764-6.154-6.449-13.012-5.812-20.36.387-4.493 2.286-8.86 3.538-13.285.147-.534.546-1 .739-1.524 3.048-8.223 1.706-7.893-4.743-9.997a59.145 59.145 0 0 1-8.076-3.367c-4.06-2.047-5.675-1.604-8.189 1.592-4.766 6.051-6.46 12.864-6.017 20.394.41 6.983.535 13.978 1.172 20.94.296 3.252 1.365 6.46 2.32 9.622 1.581 5.22 3.333 10.396 5.062 15.57 3.275 9.816 6.972 19.462 9.201 29.664 1.456 6.665 1.865 13.217 2.047 19.927.273 9.736-2.809 18.529-8.018 26.434-3.299 5.004-8.85 7.029-14.786 8.007-5.528.91-9.646-1.308-12.796-5.346-1.206-1.547-1.604-4.026-1.672-6.096-.205-6.62-.08-13.251-.08-19.882h.091ZM6.473 356.712c-.33-4.38-1.138-8.873.785-13.115a437.899 437.899 0 0 1 11.09-22.907c1.853-3.526 4.492-6.654 6.949-9.839a974.752 974.752 0 0 1 13.842-17.516 50.046 50.046 0 0 1 5.243-5.562c4.13-3.73 8.224-7.507 12.614-10.907 6.927-5.358 13.842-10.794 21.19-15.526 11.1-7.143 22.589-13.66 33.872-20.519 7.745-4.708 15.389-9.577 23.123-14.297a12.511 12.511 0 0 1 3.98-1.41c2.503-.546 4.55.74 4.528 3.321a43.221 43.221 0 0 1-1.172 10.567 186.534 186.534 0 0 1-5.687 17.493c-1.137 3.048-2.9 5.88-4.606 8.678-2.195 3.617-4.595 7.109-6.927 10.646a43.221 43.221 0 0 1-2.48 3.424c-6.198 7.723-12.124 15.673-18.698 23.055-6.904 7.757-14.423 14.968-21.702 22.372-3.321 3.379-6.62 6.78-10.123 9.964-8.314 7.552-16.754 14.98-25.136 22.475-5.983 5.346-12.114 10.544-17.892 16.106-7.086 6.801-13.887 13.91-20.826 20.882-.318.319-.716.558-1.546 1.183-.285-1.365-.671-2.366-.683-3.378-.057-6.346-.114-12.693-.011-19.028.057-3.765 1.9-6.848 4.265-9.646 7.37-8.7 14.559-17.55 22.19-26.012 4.277-4.743 9.27-8.849 13.945-13.24 3.037-2.843 6.154-5.607 9.088-8.553 6.165-6.198 13.33-11.044 20.485-16.003 8.45-5.857 16.435-12.386 24.522-18.744 3.856-3.026 7.689-6.12 11.158-9.566 5.437-5.39 8.474-12.386 11.726-19.188.342-.705.41-1.717.194-2.48-.239-.83-.808-1.933-1.49-2.16-.66-.228-1.945.273-2.411.876-1.445 1.854-2.616 3.912-3.924 5.88-3.686 5.585-6.597 11.522-12.66 15.503-7.143 4.686-13.398 10.725-20.12 16.083a70.519 70.519 0 0 1-8.554 6.062c-8.098 4.663-15.059 10.691-21.78 17.106-7.11 6.78-14.616 13.137-21.589 20.053-4.276 4.242-7.87 9.167-11.749 13.796l-10.703 12.83c-.455.535-1.024.978-1.547 1.456l-.819-.205ZM5.415 481.847c.921-8.053 1.388-16.197 2.923-24.136 1.047-5.402 3.606-10.498 5.448-15.741 1.524-4.368 1.149-5.198-2.548-7.792-2.513-1.763-4.606-3.946-4.959-7.245-.33-3.003 1.047-5.687 3.515-6.506 1.968-.66 4.595.546 6.904 1.07.557.124.955.887 1.467 1.296 2.65 2.093 4.846 1.49 6.427-1.513.955-1.808 2.434-3.344 3.298-5.175.75-1.604 1.456-3.492 1.32-5.186-.16-2.082-2.32-1.684-3.88-1.934-1.864-.296-3.753-.614-5.527-1.228-3.025-1.035-3.583-7.166-1.262-10.226 3.764-4.959 8.996-4.527 14.228-4.197 2.821.182 5.642.569 8.463.797 1.83.147 5.63-3.174 6.255-5.517.717-2.707-1.342-3.65-3.184-4.663-5.38-2.946-7.132-8.815-3.97-13.353 2.628-3.765 7.553-4.06 11.477-.99a38.672 38.672 0 0 0 7.21 4.322c.91.433 2.605.262 3.436-.34 4.88-3.55 9.724-7.155 14.354-11.034 2.638-2.206 2.65-4.788.068-7.063-3.958-3.492-3.39-7.86-2.582-12.09.74-3.925 7.234-4.812 10.68-1.377a62.557 62.557 0 0 1 7.109 8.77c1.58 2.286 3.082 2.434 5.732 1.82a225.205 225.205 0 0 1 21.133-3.788c4.3-.569 5.175-1.57 3.242-5.55a8.985 8.985 0 0 1 1.66-10.499c1.57-1.615 6.506-1.456 8.44.16 4.129 3.446 6.767 7.7 6.813 13.17.034 4.71 3.196 6.7 6.722 8.588 5.357 2.866 8.906 7.143 9.952 13.262.796 4.709.398 9.03-2.32 13.296-3.048 4.777-8.894 5.312-11.829.5-3.037-4.981-4.095-10.088-.603-15.423 1.115-1.694.82-3.457-.978-4.72-4.834-3.378-10.305-4.527-16.094-4.47-2.275.023-3.219 1.41-3.321 3.447-.125 2.456 0 4.925-.16 7.381-.238 3.8-2.047 6.677-5.63 8.133-3.139 1.274-5.766.34-7.643-2.503a12.966 12.966 0 0 1-2.173-9.44c.592-3.697-.443-4.595-3.946-3.276q-7.382 2.798-14.57 6.051c-4.038 1.831-4.47 3.981-2.605 8.019 1.956 4.231 2.252 8.542-.762 12.568-3.15 4.22-8.69 3.958-11.488-.557a51.183 51.183 0 0 1-2.093-3.685c-1.183-2.355-2.274-2.741-4.345-.762-3.343 3.196-6.437 6.653-9.565 10.066a69.381 69.381 0 0 0-4.663 5.675c-3.606 4.925-7.223 9.85-10.658 14.9-3.276 4.823-6.176 9.907-9.52 14.673-2.741 3.901-2.57 6.88.523 10.612 2.98 3.594 4.732 7.734 2.798 12.534-1.706 4.254-5.664 5.334-9.44 2.604-4.06-2.934-4.698-2.832-6.608 1.9a54.595 54.595 0 0 0-2.423 8.132c-.569 2.457.58 3.583 3.003 4.072 2.934.603 6.153 1.001 8.576 2.548 1.603 1.024 2.525 3.822 2.832 5.971.318 2.252-2.65 5.039-4.97 5.517-2.594.534-5.29.773-7.735 1.683-1.228.455-2.172 2.013-2.912 3.276-.352.603-.011 1.66.103 2.49q.921 6.711 7.325 4.778a7.052 7.052 0 0 1 8.143 3.025c1.604 2.662 1.183 5.346-1.592 7.826a47.77 47.77 0 0 1-6.37 4.674c-2.343 1.49-4.356 3.23-4.629 6.085-.295 3.037-2.24 2.98-4.436 2.969-2.48-.011-4.276-.682-4.47-3.549l-2.274-31.358c-.046-.569 0-1.137 0-1.706l-.774-.09ZM91.55 518.54c-2.081 0-4.174.08-6.244-.022-2.23-.114-2.684-1.035-1.581-2.924q.068-.125.16-.238c3.866-4.698 7.688-9.44 11.612-14.093 4.925-5.823 10.02-11.499 14.809-17.425.785-.978.387-2.911.535-4.401-1.252.25-2.946.068-3.697.83-4.515 4.572-8.826 9.338-13.171 14.07q-9.895 10.725-19.7 21.508a7.734 7.734 0 0 1-6.267 2.684c-3.219-.068-6.438.068-9.656-.046-.82-.022-2.116-.455-2.31-1.012-.295-.83-.124-2.16.399-2.889 5.903-8.348 12.42-16.094 20.973-21.963 5.04-3.458 9.577-7.655 14.582-11.18 7.632-5.38 15.469-10.476 23.248-15.663 2.412-1.603 5.54-1.171 7.883.774 2.388 1.979 1.49 4.06.591 6.38-2.775 7.11-5.198 14.355-8.121 21.395-1.32 3.173-3.47 6.017-5.278 8.986q-3.435 5.63-6.938 11.226c-1.478 2.365-3.4 4.049-6.415 3.958-1.797-.046-3.594 0-5.39 0v.023ZM6.803 315.07c-.296-1.921-.58-2.956-.592-4.003-.045-5.857.125-11.726-.08-17.584-.147-4.095 1.422-7.61 3.197-11.01 2.843-5.47 5.994-10.794 9.133-16.117 1.57-2.662 3.424-5.164 5.096-7.757.398-.614.864-1.365.841-2.036-.034-.944-.5-1.877-.785-2.81-.841.296-1.99.33-2.456.922a328.709 328.709 0 0 0-8.872 11.681c-1.683 2.32-3.173 4.777-5.232 7.018-.842-4.311-1.945-8.633.66-12.489 4.981-7.359 10.555-14.252 17.288-20.11 1.501-1.319 2.912-3.377 5.346-2.24 2.673 1.24 3.73 3.515 3.685 6.472-.137 8.917-2.548 17.323-5.664 25.58-1.195 3.173-2.093 6.472-3.435 9.588a751.821 751.821 0 0 1-8.485 18.779 75.068 75.068 0 0 1-3.822 7.245c-1.66 2.775-3.526 5.426-5.823 8.906Zm157.814 195.042c-4.106-.705-5.79.5-6.813 3.071-1.865 4.664-6.062 6.7-10.817 5.164-.614-.193-1.308-1.524-1.228-2.263.455-4.55-.08-5.835-3.879-8.076-3.685-2.172-4.663-6.108-1.91-9.293 1-1.148 3.173-2.115 4.595-1.876 2.308.386 4.538 1.66 6.608 2.877 2.331 1.377 3.378.762 4.936-1.421 3.026-4.22 3.162-7.894.148-12.25-1.831-2.65-2.036-5.972-.387-9.202 1.445-2.81 3.538-4.333 6.734-4.254 3.128.08 6.528 2.002 7.12 4.652.603 2.685.694 5.528.694 8.303 0 2.059-.649 4.106-.751 6.176-.102 2.139.728 3.651 3.253 3.686a5.914 5.914 0 0 1 5.846 4.162c1.001 2.867-.58 5.346-2.912 6.438-3.946 1.866-8.223 3.014-11.248 4.083Z"></path><path fill="#555555" d="M312.77 92.316c-.432 6.677-6.528 15.15-12.648 17.187-10.35 3.434-20.973-5.471-18.87-16.095a34.122 34.122 0 0 1 4.21-11.26c1.262-2.047 4.23-3.583 6.721-4.22a16.151 16.151 0 0 1 11.374 1.377c3.185 1.592 5.983 3.457 7.325 6.858.785 1.99 1.263 4.095 1.877 6.153Zm205.312-41.651c0 2.366.069 4.731-.045 7.097-.034.671-.432 1.775-.865 1.877-.67.16-1.58-.228-2.252-.614-10.305-5.915-16.72-15.469-22.668-25.216-3.901-6.404-7.211-13.285-8.2-20.951a9.1 9.1 0 0 0-.717-2.434c-1.513-3.663-1.138-4.22 2.911-4.232h.57q6.698 0 8.962 6.393c3.526 9.895 8.496 18.733 17.743 24.5 3.435 2.138 5.085 5.186 4.595 9.326-.17 1.399-.022 2.832-.022 4.254zM74.075 235.799c-6.3.148-11.374-6.142-11.635-14.297-.205-6.403 4.436-14.467 13.524-14.297 7.268.137 13.728 5.699 13.853 12.523.17 9.463-6.074 15.833-15.753 16.071ZM518.094 18.476c0 2.924.068 5.847-.023 8.77-.08 2.684-1.263 3.344-3.651 2.081a6.824 6.824 0 0 1-2.434-1.876c-3.663-5.551-7.45-11.056-10.726-16.834-1.683-2.969-.352-4.447 3.174-4.436 3.207 0 6.414-.023 9.622.023 3.207.045 3.97.807 4.038 4.06.057 2.73.011 5.471 0 8.201Z"></path></svg></svg>